<svg height="512" viewBox="0 0 64 64" width="512" xmlns="http://www.w3.org/2000/svg"><g id="Filled_outline" data-name="Filled outline"><path d="m61 32a28.983 28.983 0 1 1 -15.862-25.86 29.878 29.878 0 0 1 15.862 25.86z" fill="#2d75bb"/><path d="m61 32a29.878 29.878 0 0 0 -15.862-25.86 29.017 29.017 0 0 0 -41.209 33.165 5.37 5.37 0 0 0 3.071.695c2.949-.306 4.025-3.388 6-3 2.319.455 1.72 4.878 5 7a7.654 7.654 0 0 0 8 0c3.915-2.807 1.321-9.5 5-12 2.642-1.8 6.51-.206 7 0 6.147 2.586 4.653 10 10 14a14.825 14.825 0 0 0 7.776 2.6 28.857 28.857 0 0 0 5.224-16.6z" fill="#96c3f0"/><path d="m45.138 6.14a29.017 29.017 0 0 0 -36.321 8.438 6.073 6.073 0 0 0 3.183 1.422c3.7.392 4.722-3.569 10-5 4.516-1.224 10.3-.094 12 3 1.244 2.262-.449 4.2 1 6 1.622 2.013 5.541 1.813 8 1 4.125-1.364 7.439-5.542 8.6-10.208a29.007 29.007 0 0 0 -6.462-4.652z" fill="#2d75bb"/><g fill="#f4f4e6"><circle cx="54" cy="29" r="3"/><circle cx="24" cy="53" r="2"/><circle cx="21" cy="29" r="2"/></g><path d="m50 29a4 4 0 1 0 4-4 4 4 0 0 0 -4 4zm4-2a2 2 0 1 1 -2 2 2 2 0 0 1 2-2z"/><path d="m24 50a3 3 0 1 0 3 3 3 3 0 0 0 -3-3zm0 4a1 1 0 1 1 1-1 1 1 0 0 1 -1 1z"/><path d="m21 26a3 3 0 1 0 3 3 3 3 0 0 0 -3-3zm0 4a1 1 0 1 1 1-1 1 1 0 0 1 -1 1z"/><path d="m45.6 5.254a30 30 0 1 0 16.4 26.746 31.015 31.015 0 0 0 -16.4-26.746zm-13.6-1.254a28.115 28.115 0 0 1 12.674 3.025 27.747 27.747 0 0 1 5.8 4.091c-1.237 4.232-4.309 7.784-7.789 8.935-2.471.816-5.728.785-6.907-.678-.469-.583-.444-1.152-.352-2.191a5.953 5.953 0 0 0 -.551-3.664c-2.017-3.667-8.419-4.762-13.138-3.483a14.757 14.757 0 0 0 -5.783 3.228c-1.407 1.146-2.337 1.9-3.85 1.743a4.627 4.627 0 0 1 -1.834-.64 27.956 27.956 0 0 1 21.73-10.366zm0 56a28.044 28.044 0 0 1 -26.54-19.095 5.613 5.613 0 0 0 1.64.095 7.063 7.063 0 0 0 3.958-2.035c.8-.688 1.271-1.076 1.746-.979.548.108.867.87 1.341 2.1a8.9 8.9 0 0 0 3.308 4.755 8.624 8.624 0 0 0 9.126-.028c2.339-1.676 2.7-4.451 3.01-6.9.283-2.2.528-4.106 1.969-5.088 2.117-1.436 5.412-.173 6.05.1 2.919 1.227 3.884 3.685 5 6.53.981 2.5 2.092 5.333 4.789 7.349a14.879 14.879 0 0 0 6.524 2.583 27.956 27.956 0 0 1 -21.921 10.613zm23.276-12.457a13.617 13.617 0 0 1 -6.676-2.343c-2.241-1.675-3.157-4.008-4.125-6.477-1.175-2.993-2.389-6.088-6.086-7.644-1.134-.476-5.055-1.876-7.951.095-2.185 1.487-2.512 4.028-2.828 6.486-.288 2.241-.56 4.359-2.192 5.529a6.715 6.715 0 0 1 -6.874-.028 7.07 7.07 0 0 1 -2.527-3.792c-.571-1.486-1.162-3.023-2.823-3.349-1.447-.28-2.5.624-3.435 1.424a5.284 5.284 0 0 1 -2.859 1.561 4.074 4.074 0 0 1 -2.1-.4 27.894 27.894 0 0 1 4.257-22.626 6.634 6.634 0 0 0 2.843 1.015c2.345.246 3.791-.932 5.323-2.181a12.9 12.9 0 0 1 5.044-2.848c4.314-1.17 9.493.028 10.862 2.517a4.068 4.068 0 0 1 .31 2.525 4.559 4.559 0 0 0 .787 3.62 6.443 6.443 0 0 0 5.14 1.946 13.054 13.054 0 0 0 3.953-.624c3.861-1.276 7.166-4.828 8.757-9.272a28.648 28.648 0 0 1 7.924 19.323 27.83 27.83 0 0 1 -4.724 15.543z"/><path d="m35.821 55.017a18.785 18.785 0 0 1 -6.646 0l-.35 1.968a20.977 20.977 0 0 0 3.693.329 20.33 20.33 0 0 0 3.661-.33 21.4 21.4 0 0 0 11.541-6.29l-1.44-1.388a19.427 19.427 0 0 1 -10.459 5.711z"/><path d="m8 24h2v2h-2z"/><path d="m11 29h2v2h-2z"/><path d="m51 20h2v2h-2z"/></g></svg>