<svg height="512" viewBox="0 0 64 64" width="512" xmlns="http://www.w3.org/2000/svg"><g id="Filled_outline" data-name="Filled outline"><path d="m12 30h7v31h-7z" fill="#143441"/><path d="m19 35h7v26h-7z" fill="#7d8d9c"/><path d="m12 26h4v4h-4z" fill="#143441"/><path d="m12 30h7v6h-7z" fill="#394d5c"/><path d="m15 61h46v-18c-.3-.106-1.864-2.3-5 0a7.57 7.57 0 0 0 -3 7s-2-5-5-5-3.3 1.751-4 2c.771-2.695-.745-6.362-3-7a4.69 4.69 0 0 0 -5 2l-1-15h-4l-3 17a9.135 9.135 0 0 0 -7-2c-7 1-5.893 10.732-6 11z" fill="#ffd782"/><path d="m30 11v15h-4v-10c0-2.209 1.791-5 4-5z" fill="#195c85"/><path d="m26 26h-4v-4l4-4z" fill="#394d5c"/><path d="m33 3a3 3 0 0 1 3 3v21a0 0 0 0 1 0 0h-6a0 0 0 0 1 0 0v-21a3 3 0 0 1 3-3z" fill="#f4f4e6"/><path d="m30 23h6v4h-6z" fill="#394d5c"/><path d="m30 14h6v9h-6z" fill="#dbdac1"/><path d="m26 22h4v4h-4z" fill="#2d75bb"/><path d="m30 61a11.971 11.971 0 0 0 -4-6c-4.648-3.658-10.327-2.186-11-2a6 6 0 0 0 -6-6 5.366 5.366 0 0 0 -2-4 5.309 5.309 0 0 0 -4-1v19z" fill="#e97424"/><path d="m61.505 42.137-.07-.059c-1.8-1.536-3.828-1.5-6.027.116a8.5 8.5 0 0 0 -3.122 4.495c-1.011-1.368-2.459-2.689-4.286-2.689a5.551 5.551 0 0 0 -2.841.669 8.128 8.128 0 0 0 -.969-3.078 5.076 5.076 0 0 0 -2.919-2.553 5.444 5.444 0 0 0 -4.416.764l-.787-11.816a.992.992 0 0 0 .932-.986v-19c0-2.061-1.558-6-4-6s-4 3.939-4 6v2.139c-2.316.644-4 3.425-4 5.861v1.586l-3.707 3.707a1 1 0 0 0 -.293.707v4a1 1 0 0 0 1 1h7a.986.986 0 0 0 .815.963l-2.528 14.325c-.088-.051-.191-.1-.287-.154v-7.134a1 1 0 0 0 -1-1h-6v-4a1 1 0 0 0 -1-1h-2v-3a1 1 0 0 0 -1-1h-4a1 1 0 0 0 -1 1v20.292a6.815 6.815 0 0 0 -1.1-.234 6.242 6.242 0 0 0 -2.288-3.849 6.3 6.3 0 0 0 -4.773-1.2 1 1 0 0 0 -.839.991v19a1 1 0 0 0 1 1h58a1 1 0 0 0 1-1v-18a1 1 0 0 0 -.495-.863zm-36.505-17.137h-2v-2.586l2-2zm4 0h-2v-2h2zm0-4h-2v-5a4.737 4.737 0 0 1 2-3.7zm2-13c0-1.495 1.252-4 2-4s2 2.505 2 4v5h-4zm0 7h4v7h-4zm0 9h4v2h-4zm-11 12h5v5.316a9.7 9.7 0 0 0 -4.142-.306 8.214 8.214 0 0 0 -.858.175zm-7-9h2v2h-2zm0 4h5v4h-5zm1 29h-10v-17.06a4.158 4.158 0 0 1 2.389.851 4.328 4.328 0 0 1 1.611 3.23 1 1 0 0 0 1 .979 5.006 5.006 0 0 1 5 5zm.272-11.57a7.067 7.067 0 0 0 -1.272-1.171v-10.259h5v5.021c-1.676 1.031-3.142 2.95-3.728 6.409zm1.728 11.57v-6.206a11.606 11.606 0 0 1 9.382 1.992 10.638 10.638 0 0 1 3.196 4.214zm44 0h-29.275a12.754 12.754 0 0 0 -4.107-5.786 13.52 13.52 0 0 0 -10.618-2.451c.04-5.337 1.764-8.29 5.141-8.773a8.107 8.107 0 0 1 6.184 1.748 1 1 0 0 0 1.658-.564l2.856-16.174h2.225l.936 14.066a1 1 0 0 0 1.818.5 3.709 3.709 0 0 1 3.908-1.609 3.182 3.182 0 0 1 1.715 1.6 5.771 5.771 0 0 1 .595 4.162 1 1 0 0 0 1.3 1.215 2.423 2.423 0 0 0 1-.8 2.924 2.924 0 0 1 2.664-1.134c1.888 0 3.615 3.238 4.072 4.372a1 1 0 0 0 1.921-.49 6.572 6.572 0 0 1 2.6-6.076c1.872-1.375 2.852-.777 3.408-.322z"/><path d="m49.945 54a9.383 9.383 0 0 0 -3.905 1.1 6.1 6.1 0 0 0 -1.258-3.731 6.422 6.422 0 0 0 -4.94-2.258 5.706 5.706 0 0 0 -9.516-2.856l1.348 1.476a3.869 3.869 0 0 1 3.96-.807 3.782 3.782 0 0 1 2.183 2.379 9.242 9.242 0 0 0 -2.274.8l.914 1.78c2.5-1.285 5.4-.968 6.762.734a4.5 4.5 0 0 1 .787 3.265c-.006.044-.006 1.118-.006 1.118a1 1 0 0 0 1.639.77 7.679 7.679 0 0 1 4.417-1.77 8.285 8.285 0 0 1 6.2 2.67l1.488-1.336a10.2 10.2 0 0 0 -7.799-3.334z"/></g></svg>