<svg height="512" viewBox="0 0 64 64" width="512" xmlns="http://www.w3.org/2000/svg"><g id="Filled_outline" data-name="Filled outline"><path d="m24 28h16v16h-16z" fill="#2d75bb"/><path d="m38 48h-12l-2-4h16z" fill="#32b1cc"/><path d="m32 32a4 4 0 0 1 4 4v8a0 0 0 0 1 0 0h-8a0 0 0 0 1 0 0v-8a4 4 0 0 1 4-4z" fill="#87cee9"/><g fill="#195c85"><path d="m32 32a4 4 0 0 1 4 4v2a0 0 0 0 1 0 0h-8a0 0 0 0 1 0 0v-2a4 4 0 0 1 4-4z"/><path d="m40 40h9v4h-9z"/><path d="m15 40h9v4h-9z"/></g><path d="m3 26h12v24h-12z" fill="#143441"/><path d="m24 24-7-7h30l-7 7z" fill="#2d75bb"/><path d="m24 24h16v4h-16z" fill="#32b1cc"/><path d="m49 26h12v24h-12z" fill="#143441"/><path d="m47 17h-30l-2-4h34z" fill="#195c85"/><path d="m61 25h-12a1 1 0 0 0 -1 1v13h-7v-14.586l6.7-6.71a1 1 0 0 0 .191-.257l2-4a1 1 0 0 0 -.891-1.447h-34a1 1 0 0 0 -.895 1.447l2 4a1 1 0 0 0 .191.257l6.7 6.71v14.586h-6.996v-13a1 1 0 0 0 -1-1h-12a1 1 0 0 0 -1 1v24a1 1 0 0 0 1 1h12a1 1 0 0 0 1-1v-5h7.382l1.723 3.447a1 1 0 0 0 .895.553h12a1 1 0 0 0 .9-.553l1.718-3.447h7.382v5a1 1 0 0 0 1 1h12a1 1 0 0 0 1-1v-24a1 1 0 0 0 -1-1zm-53 24h-4v-2h4zm0-4h-4v-2h4zm0-4h-4v-2h4zm0-4h-4v-2h4zm0-4h-4v-2h4zm0-4h-4v-2h4zm6 20h-4v-2h4zm0-4h-4v-2h4zm0-4h-4v-2h4zm0-4h-4v-2h4zm0-4h-4v-2h4zm0-4h-4v-2h4zm9 14h-7v-2h7zm-6.382-29h30.764l-1 2h-28.764zm21.968 4-5 5h-.586v-5zm-7.586 0v5h-.586l-5-5zm-11.586 0h3.172l5 5h-3.172zm17.968 29h-10.764l-1-2h12.764zm-2.382-8v4h-6v-4zm-6-2v-1a3 3 0 0 1 6 0v1zm10 6h-2v-7a5 5 0 0 0 -10 0v7h-2v-14h14zm0-16h-14v-2h14zm.586-4h-3.172l5-5h3.172zm8.414 20h-7v-2h7zm6 6h-4v-2h4zm0-4h-4v-2h4zm0-4h-4v-2h4zm0-4h-4v-2h4zm0-4h-4v-2h4zm0-4h-4v-2h4zm6 20h-4v-2h4zm0-4h-4v-2h4zm0-4h-4v-2h4zm0-4h-4v-2h4zm0-4h-4v-2h4zm0-4h-4v-2h4z"/></g></svg>