<svg height="512" viewBox="0 0 64 64" width="512" xmlns="http://www.w3.org/2000/svg"><g id="Filled_outline" data-name="Filled outline"><path d="m26 37h25v24h-25z" fill="#cdeef6"/><path d="m51 37h4a6 6 0 0 1 6 6v18a0 0 0 0 1 0 0h-10a0 0 0 0 1 0 0v-24a0 0 0 0 1 0 0z" fill="#92cdde"/><path d="m22 37a5.857 5.857 0 0 0 -6 6v10h-4v8h14v-24z" fill="#92cdde"/><path d="m16 46h1.5a2.5 2.5 0 0 1 2.5 2.5 2.5 2.5 0 0 1 -2.5 2.5h-1.5a0 0 0 0 1 0 0v-5a0 0 0 0 1 0 0z" fill="#2d75bb"/><path d="m55 49h6v5h-6z" fill="#e33e5c"/><path d="m30 41h8v10h-8z" fill="#92cdde"/><path d="m38 41h9v10h-9z" fill="#f4f4e6"/><path d="m30 55h17v6h-17z" fill="#92cdde"/><path d="m30 46h8v5h-8z" fill="#50b3c9"/><path d="m51 33h-25l-3-15a15 15 0 0 1 15-15c8.284 0 16 6.716 16 15z" fill="#cdeef6"/><path d="m51 33h-25l-2-10c0-8.284 5.716-15 14-15a15 15 0 0 1 15 15z" fill="#f4f4e6"/><path d="m29 17h16v16h-16z" fill="#ffd782"/><path d="m45 19h3a3 3 0 0 1 3 3 3 3 0 0 1 -3 3h-3a0 0 0 0 1 0 0v-6a0 0 0 0 1 0 0z" fill="#50b3c9"/><path d="m26 33h25v4h-25z" fill="#92cdde"/><path d="m45 9.738a14.922 14.922 0 0 0 -7-1.738 13.437 13.437 0 0 0 -9 3.316v5.684h16z" fill="#143441"/><path d="m12 6h17v15h-17z" fill="#e33e5c"/><path d="m29 13h16v4h-16z" fill="#394d5c"/><path d="m26 47-4-10h4z" fill="#143441"/><path d="m51 47v-10h4z" fill="#143441"/><path d="m10 3a2 2 0 0 1 2 2v56a0 0 0 0 1 0 0h-4a0 0 0 0 1 0 0v-56a2 2 0 0 1 2-2z" fill="#394d5c"/><path d="m6 55h2a0 0 0 0 1 0 0v6a0 0 0 0 1 0 0h-2a3 3 0 0 1 -3-3 3 3 0 0 1 3-3z" fill="#cdeef6"/><path d="m12 6h6v6h-6z" fill="#2d75bb"/><path d="m40 24a3 3 0 0 1 -6 0h-2a5 5 0 0 0 10 0z"/><path d="m32 20h2v2h-2z"/><path d="m40 20h2v2h-2z"/><path d="m55 36h-3v-2.9l2.98-14.9a.925.925 0 0 0 .02-.2 15.308 15.308 0 0 0 -5.223-11.336 17.637 17.637 0 0 0 -11.777-4.664 15.837 15.837 0 0 0 -9.31 3h-15.69a3 3 0 0 0 -6 0v49h-1a4 4 0 0 0 0 8h55a1 1 0 0 0 1-1v-17c0-4.561-3.009-8-7-8zm-48 24h-1a2 2 0 0 1 0-4h1zm4 0h-2v-55a1 1 0 0 1 2 0zm42.523-22-1.523 3.808v-3.808zm-23.523-31.477a13.856 13.856 0 0 1 8-2.523 15.62 15.62 0 0 1 10.426 4.139 13.406 13.406 0 0 1 4.54 9.231 16.006 16.006 0 0 0 -14.966-10.37 14.506 14.506 0 0 0 -8 2.325zm16 17.477v-4h2a2 2 0 0 1 0 4zm2 2v2h-2v-2zm0-8h-2v-6.473a14.1 14.1 0 0 1 1.894 1.581 13.835 13.835 0 0 1 3.934 7.8 3.991 3.991 0 0 0 -3.828-2.908zm-18-6.2a12.422 12.422 0 0 1 8-2.8 13.9 13.9 0 0 1 6 1.364v1.636h-14zm0 2.2h14v2h-14zm0 4h14v10h-2v2h2v2h-14zm-17-11h4v4h-4zm0 6h5a1 1 0 0 0 1-1v-5h9v13h-15zm12 47h-12v-6h2.95a4.761 4.761 0 0 1 3.273 1.63 4.245 4.245 0 0 1 .809 1.621l1.936-.5a6.227 6.227 0 0 0 -1.191-2.379 6.553 6.553 0 0 0 -3.777-2.233v-.139h.5a3.5 3.5 0 0 0 0-7h-.5v-2a4.8 4.8 0 0 1 4.347-4.94l2.381 5.954-2.356-.943-.744 1.858 4.127 1.65.245.614zm-8-10v-3h.5a1.5 1.5 0 0 1 0 3zm8-8.192-1.523-3.808h1.523zm0-5.808h-3a6.847 6.847 0 0 0 -7 7v9h-2v-30h9.78l2.22 11.1zm0-13.1c0-.307.038-.6.057-.9h2.943v10h-1.18zm21 37.1h-15v-4h15zm4 0h-2v-5a1 1 0 0 0 -1-1h-17a1 1 0 0 0 -1 1v5h-2v-22h23zm0-24h-23v-2h23zm.18-4h-4.18v-2h3a1 1 0 0 0 1-1v-3.556a3.981 3.981 0 0 0 1.968-3.123c.009.194.03.386.032.581zm9.82 21h-4v-3h4zm0-5h-5a1 1 0 0 0 -1 1v5a1 1 0 0 0 1 1h5v5h-8v-12.323l4.372-1.748-.744-1.858-2.828 1.134 2.864-7.159c2.847.376 4.336 3.179 4.336 5.954z"/><path d="m30 52h17a1 1 0 0 0 1-1v-10a1 1 0 0 0 -1-1h-17a1 1 0 0 0 -1 1v10a1 1 0 0 0 1 1zm9-10h7v8h-7zm-8 0h6v3h-6zm0 5h6v3h-6z"/><path d="m41 44h2v2h-2z"/></g></svg>