<svg height="512" viewBox="0 0 64 64" width="512" xmlns="http://www.w3.org/2000/svg"><g id="Filled_outline" data-name="Filled outline"><path d="m6 9h6v21h-6z" fill="#dbdac1"/><path d="m12 24h40a6 6 0 0 1 6 6v31a0 0 0 0 1 0 0h-52a0 0 0 0 1 0 0v-31a6 6 0 0 1 6-6z" fill="#c1bfa0"/><path d="m52 43h-40l-1-13a21 21 0 0 1 21-21 21 21 0 0 1 21 21z" fill="#f4f4e6"/><path d="m32 15a17 17 0 0 1 17 17 11 11 0 0 1 -11 11h-12a11 11 0 0 1 -11-11 17 17 0 0 1 17-17z" fill="#fff"/><path d="m23 24h18v19h-18z" fill="#ffd782"/><path d="m22 29h1a0 0 0 0 1 0 0v6a0 0 0 0 1 0 0h-1a3 3 0 0 1 -3-3 3 3 0 0 1 3-3z" fill="#f9bb4b"/><path d="m44 27h1a0 0 0 0 1 0 0v6a0 0 0 0 1 0 0h-1a3 3 0 0 1 -3-3 3 3 0 0 1 3-3z" fill="#f9bb4b" transform="matrix(-1 0 0 -1 86 60)"/><path d="m23 24h18v-6.4a16.893 16.893 0 0 0 -18 0z" fill="#394d5c"/><path d="m29 24h6v-8.72a16.211 16.211 0 0 0 -6 0z" fill="#aabece"/><path d="m12 43h40v4h-40z" fill="#dbdac1"/><g fill="#f4f4e6"><path d="m12.063 47h39.937a6 6 0 0 1 6 6v8a0 0 0 0 1 0 0h-52a0 0 0 0 1 0 0v-7.937a6.063 6.063 0 0 1 6.063-6.063z"/><path d="m20 47h24v14h-24z"/><path d="m36 47h8v14h-8z"/></g><path d="m36 47h8v4h-8z" fill="#7d8d9c"/><path d="m36 55h8v6h-8z" fill="#dbdac1"/><path d="m20 47h16v5h-16z" fill="#394d5c"/><path d="m52 56h6v5h-6z" fill="#dd3e46"/><path d="m6 55a6 6 0 0 1 6 6 0 0 0 0 1 0 0h-6a0 0 0 0 1 0 0v-6a0 0 0 0 1 0 0z" fill="#2d75bb"/><path d="m28 56a3 3 0 0 1 3 3v2a0 0 0 0 1 0 0h-6a0 0 0 0 1 0 0v-2a3 3 0 0 1 3-3z" fill="#2d75bb"/><circle cx="9" cy="7" fill="#4f97d5" r="4"/><path d="m53.278 30-1.178 12h1.18c2.606 0 4.72-1.791 4.72-4v-4c0-2.209-2.114-4-4.722-4z" fill="#dbdac1"/><path d="m28 38h8v2h-8z"/><path d="m26 29h2v2h-2z"/><path d="m36 29h2v2h-2z"/><path d="m31 32h2v4h-2z"/><path d="m52.87 23.056a21.975 21.975 0 0 0 -39.87-4.101v-8.986a4.952 4.952 0 0 0 1-2.969 5 5 0 0 0 -10 0 4.952 4.952 0 0 0 1 2.969v51.031a1 1 0 0 0 1 1h52a1 1 0 0 0 1-1v-31a6.749 6.749 0 0 0 -6.13-6.944zm-20.87-13.056a20.011 20.011 0 0 1 20 19.923l-.926 12.077h-6.455a11.994 11.994 0 0 0 5.381-10 18 18 0 0 0 -36 0 11.994 11.994 0 0 0 5.381 10h-6.455l-.926-12a20.023 20.023 0 0 1 20-20zm12 23.444v2.556h-2v-2a3.959 3.959 0 0 0 2-.556zm-2-1.444v-4a2 2 0 0 1 0 4zm3 6a1 1 0 0 0 1-1v-7a4 4 0 0 0 -4-4v-6.47a15.968 15.968 0 0 1 6 12.47 10.012 10.012 0 0 1 -6 9.159v-3.159zm-5 0v3.8a9.983 9.983 0 0 1 -2 .2h-12a9.983 9.983 0 0 1 -2-.2v-16.8h16v11h-2v2zm-16-15v-4.835a15.881 15.881 0 0 1 4-1.638v6.473zm6 0v-6.861a14.458 14.458 0 0 1 4 0v6.861zm6 0v-6.473a15.881 15.881 0 0 1 4 1.638v4.835zm-18 9a4 4 0 0 0 4 4v5.159a10.012 10.012 0 0 1 -6-9.159 15.968 15.968 0 0 1 6-12.47v8.47a4 4 0 0 0 -4 4zm4-2v4a2 2 0 0 1 0-4zm-16-23a3 3 0 1 1 3 3 3 3 0 0 1 -3-3zm5 36.039v3.042a6.962 6.962 0 0 0 -4 2.048v-18.129a4.8 4.8 0 0 1 3.542-4.778 22.247 22.247 0 0 0 -.542 4.855zm-4-18.058v-13.4a4.929 4.929 0 0 0 4 0v11.5a6.835 6.835 0 0 0 -4 1.9zm0 35.019v-3.9a5.013 5.013 0 0 1 3.9 3.9zm12 0h-2v-6h-2v6h-2.08a7 7 0 0 0 -5.92-5.92v-1.018a5.037 5.037 0 0 1 5-5.062h7zm11 0h-4v-1a2 2 0 0 1 4 0zm5 0h-3v-1a4 4 0 0 0 -8 0v1h-3v-7h14zm0-9h-14v-3h14zm8 9h-6v-4h6zm0-6h-6v-2h6zm0-4h-6v-2h6zm-30-4v-2h38v2zm44 14h-4v-3h4zm0-5h-5a1 1 0 0 0 -1 1v4h-2v-6h-2v6h-2v-12h7a5.037 5.037 0 0 1 5 5.062zm0-6.871a6.962 6.962 0 0 0 -4-2.048v-3.081h.275a6.2 6.2 0 0 0 3.725-1.21zm0-10.129c0 1.654-1.669 3-3.722 3h-.122l.763-9.948a3.273 3.273 0 0 1 3.081 2.948zm0-7.79a6.12 6.12 0 0 0 -3.024-1.169 21.965 21.965 0 0 0 -.5-3.814 4.8 4.8 0 0 1 3.524 4.773z"/><path d="m8 6h2v2h-2z"/></g></svg>