<svg height="512" viewBox="0 0 64 64" width="512" xmlns="http://www.w3.org/2000/svg"><g id="Filled_outline" data-name="Filled outline"><path d="m33.039 3.012c-17.039-.012-30.039 11.988-30.039 28.988a29.085 29.085 0 0 0 29 29c15.794 0 29-12.8 29-28.6 0-15.4-13-29.377-27.961-29.388z" fill="#f4f4e6"/><path d="m55 61h-48l5-8h39z" fill="#c1bfa0"/><path d="m14 57h12c7.18 0 13-6.82 13-14h5v1a17.05 17.05 0 0 1 -17 17h-11a1.815 1.815 0 0 1 -2-2z" fill="#394d5c"/><path d="m11 7a1.225 1.225 0 0 1 2 0l2 2 22 22-4 4-22-22-2-2a1.225 1.225 0 0 1 0-2z" fill="#dbdac1"/><circle cx="39" cy="38" fill="#c1bfa0" r="7"/><circle cx="39" cy="38" fill="#f4f4e6" r="2"/><path d="m48 46a3 3 0 0 0 3 3h4.683c.106-.148.214-.3.317-.446.377-.549.732-1.114 1.07-1.689.038-.064.074-.129.111-.194a28.338 28.338 0 0 0 1.732-3.544c.017-.042.033-.085.05-.127h-7.963a3 3 0 0 0 -3 3z" fill="#dbdac1"/><path d="m61 32.4a28.506 28.506 0 0 0 -1.626-9.4h-9.374v15h10.432a27.936 27.936 0 0 0 .568-5.6z" fill="#dbdac1"/><path d="m39 41a3 3 0 1 0 -3-3 3 3 0 0 0 3 3zm0-4a1 1 0 1 1 -1 1 1 1 0 0 1 1-1z"/><path d="m35.121 6.007a21.084 21.084 0 0 0 -9.452 1.05l.662 1.886a19.046 19.046 0 0 1 8.548-.95 19.52 19.52 0 0 1 11.408 5.707l1.426-1.4a21.531 21.531 0 0 0 -12.592-6.293z"/><path d="m48 13.586h2v2.828h-2z" transform="matrix(.707 -.707 .707 .707 3.745 39.042)"/><path d="m14.339 49.75 1.322-1.5c-1.771-1.562-7.561-7.35-7.661-16.262a21.97 21.97 0 0 1 3.826-12.425l-1.652-1.126a23.986 23.986 0 0 0 -4.174 13.575c.111 9.734 6.41 16.038 8.339 17.738z"/><path d="m24 43h2v2h-2z"/><path d="m28 46h2v2h-2z"/><path d="m62 32.4a31.28 31.28 0 0 0 -8.644-21.157 28.4 28.4 0 0 0 -20.316-9.233 32.356 32.356 0 0 0 -18.258 5.358l-1.075-1.075a2.209 2.209 0 0 0 -3.414 0l-2 2a2.417 2.417 0 0 0 -.811 1.707 2.417 2.417 0 0 0 .811 1.707l.727.727a29.415 29.415 0 0 0 -7.02 19.566 29.8 29.8 0 0 0 8.747 21.118l-4.595 7.352a1 1 0 0 0 .848 1.53h48a1 1 0 0 0 .9-1.447l-3.345-6.69c.19-.176.382-.346.569-.528a29.117 29.117 0 0 0 8.876-20.935zm-6.96 15.6h-4.04a2 2 0 0 1 0-4h6.385a27.2 27.2 0 0 1 -2.345 4zm4.96-15.6c0 .2-.011.4-.015.6h-6.985v2h6.873c-.064.672-.158 1.339-.271 2h-8.602v-13h7.645a27.425 27.425 0 0 1 1.355 8.4zm-48.008-24.918c.016 0 23.443 23.367 23.443 23.367a8.022 8.022 0 0 0 -2.82 2.352l-23.133-23.193c.004-.016 2.51-2.522 2.51-2.526zm27.008 24.518a6 6 0 1 1 -6 6 6.006 6.006 0 0 1 6-6zm-35 0a27.469 27.469 0 0 1 6.437-18.149l21.151 21.149a7.98 7.98 0 0 0 6.069 10.876 15.738 15.738 0 0 1 -2.829 6.124h-16.828l.707-.707-2-2-1.414 1.414 1.293 1.293h-4.12c-.079-.076-.156-.143-.239-.227a27.8 27.8 0 0 1 -8.227-19.773zm9 25v2a3.56 3.56 0 0 0 .148 1h-4.343l3.75-6h20.057a12.007 12.007 0 0 1 -6.612 2h-12a1 1 0 0 0 -1 1zm3 3c-.729 0-1-.271-1-1v-1h11a14.008 14.008 0 0 0 8.937-3.229c2.487-2.061 4.113-5.758 4.742-8.8a7.946 7.946 0 0 0 3.288-1.028 16.04 16.04 0 0 1 -15.967 15.057zm37.382 0h-18.15a18.02 18.02 0 0 0 6.7-6h8.449zm-1.658-8.1c-.08.078-.164.15-.245.227a.989.989 0 0 0 -.479-.127h-7.9a17.834 17.834 0 0 0 1.9-8v-.726a7.98 7.98 0 0 0 -7.448-13.136l-21.327-21.327a30.455 30.455 0 0 1 16.814-4.8 26.391 26.391 0 0 1 18.861 8.604 30.257 30.257 0 0 1 6.024 9.385h-7.924a1 1 0 0 0 -1 1v15a1 1 0 0 0 1 1h9.185a26.984 26.984 0 0 1 -.947 3h-7.238a4 4 0 0 0 0 8h2.493c-.558.655-1.146 1.292-1.769 1.9z"/></g></svg>