<svg height="512" viewBox="0 0 64 64" width="512" xmlns="http://www.w3.org/2000/svg"><g id="Filled_outline" data-name="Filled outline"><circle cx="32" cy="32" fill="#995f5b" r="29"/><g fill="#d3843d"><path d="m61 32a28.884 28.884 0 0 0 -6.616-18.439 9.36 9.36 0 0 0 -2.384 5.439c-.284 4.594 3.779 6.34 4 12 .144 3.7-1.386 8.248-4 9-2.807.807-4.168-3.54-9-4-4.707-.448-6.768 3.357-10 2-2.835-1.19-2.614-4.925-5-5-2.35-.074-4.374 1.993-5 4-1.146 3.674 2.825 5.767 2 10-.706 3.622-4.3 5.612-5 6a10.921 10.921 0 0 1 -6.578 1.264 29 29 0 0 0 47.578-22.264z"/><circle cx="14" cy="22" r="3"/><circle cx="28" cy="23" r="2"/><circle cx="16" cy="37" r="3"/></g><path d="m32 2a30 30 0 1 0 30 30 30.034 30.034 0 0 0 -30-30zm-18.147 51.3a27.982 27.982 0 1 1 39.231-39.694 10.039 10.039 0 0 0 -2.084 5.332c-.159 2.579.9 4.377 1.916 6.117a11.946 11.946 0 0 1 2.084 5.984c.142 3.652-1.42 7.466-3.277 8-.825.237-1.5-.267-2.728-1.255a10.522 10.522 0 0 0 -5.9-2.779 10.739 10.739 0 0 0 -6 1.4c-1.582.762-2.535 1.167-3.706.677a4.719 4.719 0 0 1 -2.146-2.418c-.668-1.221-1.424-2.6-3.209-2.659-2.9-.1-5.254 2.353-5.987 4.7-.693 2.226.178 3.991.947 5.549.706 1.43 1.373 2.781 1.027 4.558-.537 2.749-3.05 4.51-4.5 5.317a9.865 9.865 0 0 1 -5.668 1.171zm46.147-21.3a27.988 27.988 0 0 1 -43.619 23.228 11.583 11.583 0 0 0 4.107-1.355c3.031-1.682 4.981-4.055 5.493-6.682a8.611 8.611 0 0 0 -1.2-5.826c-.719-1.456-1.286-2.605-.83-4.067.5-1.605 2.133-3.3 3.924-3.3h.089c.585.019.9.483 1.518 1.621a6.527 6.527 0 0 0 3.127 3.3c2.06.866 3.731.06 5.348-.719a8.873 8.873 0 0 1 4.944-1.208 8.721 8.721 0 0 1 4.835 2.346c1.314 1.059 2.672 2.153 4.536 1.62 3.165-.91 4.887-5.8 4.723-10a13.771 13.771 0 0 0 -2.356-6.918c-.939-1.613-1.763-3.009-1.639-4.978a7.823 7.823 0 0 1 1.4-3.843 27.859 27.859 0 0 1 5.6 16.781z"/><path d="m18 22a4 4 0 1 0 -4 4 4 4 0 0 0 4-4zm-6 0a2 2 0 1 1 2 2 2 2 0 0 1 -2-2z"/><path d="m28 26a3 3 0 1 0 -3-3 3 3 0 0 0 3 3zm0-4a1 1 0 1 1 -1 1 1 1 0 0 1 1-1z"/><path d="m16 33a4 4 0 1 0 4 4 4 4 0 0 0 -4-4zm0 6a2 2 0 1 1 2-2 2 2 0 0 1 -2 2z"/><path d="m31 15h2v2h-2z"/><path d="m35 22h2v2h-2z"/><path d="m22 29h2v2h-2z"/><path d="m37 17h2v2h-2z"/><path d="m41.509 52.129a22.928 22.928 0 0 1 -9.58 2.871l.142 2a24.7 24.7 0 0 0 19.8-12.5l-1.738-.99a22.923 22.923 0 0 1 -8.624 8.619z"/><path d="m28 55h2v2h-2z"/></g></svg>