<svg height="512" viewBox="0 0 64 64" width="512" xmlns="http://www.w3.org/2000/svg"><g id="Filled_outline" data-name="Filled outline"><path d="m10 44 41-41-1 12-9 20-20 9z" fill="#195c85"/><path d="m32 39v8h14v-23l-5 11z" fill="#7fcac9"/><path d="m46 31h4v12h-4z" fill="#195c85"/><path d="m34 47h10v14h-10z" fill="#143441"/><path d="m32 47-8 8v6h4v-4l6-6v-4z" fill="#143441"/><path d="m16 13a2.122 2.122 0 0 1 3 0l3 3-3 3-3-3a2.122 2.122 0 0 1 0-3z" fill="#195c85"/><path d="m22 16h16l-19 19v-16z" fill="#32b1cc"/><path d="m46 47 8 8v6h-4v-4l-6-6v-4z" fill="#143441"/><path d="m34 47h10v4h-10z" fill="#32b1cc"/><circle cx="43" cy="38" fill="#f4f4e6" r="3"/><path d="m50 62h4a1 1 0 0 0 1-1v-6a1 1 0 0 0 -.293-.707l-7.707-7.707v-2.586h3a1 1 0 0 0 1-1v-12a1 1 0 0 0 -1-1h-3v-5.9l3.912-8.694a1.026 1.026 0 0 0 .088-.323l1-12a1 1 0 0 0 -1.7-.79l-12.714 12.707h-15.172l-2.707-2.707a3.121 3.121 0 1 0 -4.414 4.414l2.707 2.707v15.172l-8.707 8.707a1 1 0 0 0 .707 1.707h11a1 1 0 0 0 .41-.088l9.59-4.312v5.989l-7.707 7.707a1 1 0 0 0 -.293.704v6a1 1 0 0 0 1 1h4a1 1 0 0 0 1-1v-3.586l4-4v7.586a1 1 0 0 0 1 1h10a1 1 0 0 0 1-1v-7.586l4 4v3.586a1 1 0 0 0 1 1zm-1-30v10h-2v-10zm.777-26.362-.595 7.13-3.268-3.268zm-5.277 5.276 3.567 3.567-9.728 2.594zm3.725 5.594-2.915 6.476-6.973-3.839zm-5.225 17.492a4.048 4.048 0 0 0 -.469.047l2.469-5.431v5.94a3.959 3.959 0 0 0 -2-.556zm2 4a2 2 0 1 1 -2-2 2 2 0 0 1 2 2zm-.513-13.186-3.4 7.562-4.459-11.89zm-14.038.151 4.16-4.159 4.519 12.049zm6.514 8.626-13.763-1.376 5.834-5.833zm-14.549-16.591h13.172l-7.086 7.086-6.586-6.586zm-5.707-1.707a1.121 1.121 0 0 1 1.586-1.586l2.293 2.293-1.586 1.586zm-4.293 27.707 3.086-3.086 3.086 3.086zm7.586-1.414-3.086-3.086 3.086-3.086zm0-9v-13.172l.5-.5 6.586 6.586zm2 9.867v-7.039l4.855 4.855zm6.805-3.062-5.117-5.117 13.455 1.346zm4.2 11.2-5.707 5.707a1 1 0 0 0 -.298.702v3h-2v-4.586l7.414-7.414h.586zm9.995 9.409h-8v-8h8zm0-10h-8v-2h8zm-10-4v-6.3l6.166-2.775a3.961 3.961 0 0 0 -.166 1.075 4 4 0 0 0 4 4 3.959 3.959 0 0 0 2-.556v4.556zm12 4.586v-2.586h.586l7.414 7.414v4.586h-2v-3a1 1 0 0 0 -.293-.707z"/><path d="m35 42h4v2h-4z"/><path d="m15 4a8.009 8.009 0 0 0 -8 8h2a6.006 6.006 0 0 1 6-6z"/><path d="m13 12a2 2 0 0 1 2-2v-2a4 4 0 0 0 -4 4z"/></g></svg>