<svg height="512" viewBox="0 0 64 64" width="512" xmlns="http://www.w3.org/2000/svg"><g id="Filled_outline" data-name="Filled outline"><path d="m27 48h19v4h-19z" fill="#7d8d9c"/><path d="m38 44h7a0 0 0 0 1 0 0v4a0 0 0 0 1 0 0h-7a2 2 0 0 1 -2-2 2 2 0 0 1 2-2z" fill="#195c85"/><path d="m43 31a2 2 0 0 1 2 2v11a0 0 0 0 1 0 0h-4a0 0 0 0 1 0 0v-11a2 2 0 0 1 2-2z" fill="#2d75bb"/><path d="m50 32h6v10h-6z" fill="#7d8d9c"/><path d="m53 28a2 2 0 0 1 2 2v2a0 0 0 0 1 0 0h-4a0 0 0 0 1 0 0v-2a2 2 0 0 1 2-2z" fill="#e97424"/><path d="m56 32h4v4h-4z" fill="#394d5c"/><path d="m26 36h4v12h-4z" fill="#2d75bb"/><path d="m26 28h-4v5l4 3h4v-8z" fill="#e97424"/><path d="m9 22h4a0 0 0 0 1 0 0v29a0 0 0 0 1 0 0 4 4 0 0 1 -4-4v-25a0 0 0 0 1 0 0z" fill="#2d75bb"/><path d="m3 43h6v4h-6z" fill="#e97424"/><path d="m7 30a2 2 0 0 1 2 2v6a0 0 0 0 1 0 0h-4a0 0 0 0 1 0 0v-6a2 2 0 0 1 2-2z" fill="#e97424"/><path d="m5 38h4v5h-4z" fill="#f9bb4b"/><path d="m11 8a2 2 0 0 1 2 2v2a0 0 0 0 1 0 0h-4a0 0 0 0 1 0 0v-2a2 2 0 0 1 2-2z" fill="#e97424"/><path d="m3 16 6 6h4l6-6z" fill="#e97424"/><circle cx="53" cy="49" fill="#394d5c" r="8"/><circle cx="20" cy="49" fill="#394d5c" r="8"/><circle cx="20" cy="49" fill="#f4f4e6" r="2"/><circle cx="53" cy="49" fill="#f4f4e6" r="2"/><path d="m57 40.95v-3.95h3a1 1 0 0 0 1-1v-4a1 1 0 0 0 -1-1h-4v-1a3 3 0 0 0 -6 0v1a1 1 0 0 0 -1 1v8.95a9.042 9.042 0 0 0 -3 2.406v-10.356a3 3 0 0 0 -6 0v10h-2a3 3 0 0 0 -3 3 2.966 2.966 0 0 0 .184 1h-4.184v-19a1 1 0 0 0 -1-1h-1v-5a1 1 0 0 0 -2 0v5h-5a1 1 0 0 0 -1 1v5a1 1 0 0 0 .4.8l3.6 2.7v5.022a8.957 8.957 0 0 0 -11 .789v-19.9l5.707-5.707a1 1 0 0 0 -.707-1.704h-7v-2h1a1 1 0 0 0 1-1v-2a3 3 0 0 0 -6 0v2a1 1 0 0 0 1 1h1v2h-7a1 1 0 0 0 -.707 1.707l5.707 5.707v6.77a2.966 2.966 0 0 0 -1-.184 3 3 0 0 0 -3 3v10h-1a1 1 0 0 0 -1 1v4a1 1 0 0 0 1 1h5.112a5.021 5.021 0 0 0 3.315 3.732 8.989 8.989 0 0 0 16.623 1.268h16.9a8.992 8.992 0 1 0 12.05-12.05zm0-7.95h2v2h-2zm-49 13h-4v-2h4zm0-4h-2v-3h2zm0-5h-2v-5a1 1 0 0 1 2 0zm34-4a1 1 0 0 1 2 0v10h-2zm-4 12h6v2h-6a1 1 0 0 1 0-2zm-15-12.5v-3.5h6v6h-2.667zm-13-22.5a1 1 0 0 1 2 0v1h-2zm2 34.9a8.93 8.93 0 0 0 -1 4.1c0 .08.01.158.012.238a3 3 0 0 1 -1.012-2.238v-24h2zm-2.586-23.9-4-4h11.172l-4 4zm10.586 35a7 7 0 1 1 7-7 7.008 7.008 0 0 1 -7 7zm7-12.644v-6.356h2v10h-.232a8.963 8.963 0 0 0 -1.768-3.644zm1.768 7.644a8.971 8.971 0 0 0 .232-2h15a8.971 8.971 0 0 0 .232 2zm23.232-21a1 1 0 0 1 2 0v1h-2zm-1 3h4v7.232a8.737 8.737 0 0 0 -4 0zm2 23a7 7 0 1 1 7-7 7.008 7.008 0 0 1 -7 7z"/><path d="m21 46.184v-2.184h-2v2.184a3 3 0 0 0 -1.816 1.816h-2.184v2h2.184a3 3 0 0 0 1.816 1.816v2.184h2v-2.184a3 3 0 0 0 1.816-1.816h2.184v-2h-2.184a3 3 0 0 0 -1.816-1.816zm-1 3.816a1 1 0 1 1 1-1 1 1 0 0 1 -1 1z"/><path d="m54 46.184v-2.184h-2v2.184a3 3 0 0 0 -1.816 1.816h-2.184v2h2.184a3 3 0 0 0 1.816 1.816v2.184h2v-2.184a3 3 0 0 0 1.816-1.816h2.184v-2h-2.184a3 3 0 0 0 -1.816-1.816zm-1 3.816a1 1 0 1 1 1-1 1 1 0 0 1 -1 1z"/></g></svg>