<svg height="512" viewBox="0 0 64 64" width="512" xmlns="http://www.w3.org/2000/svg"><g id="Filled_outline" data-name="Filled outline"><path d="m17 31h32v13h-32z" fill="#aabece"/><path d="m45 17a2 2 0 0 1 2 2v4a0 0 0 0 1 0 0h-4a0 0 0 0 1 0 0v-4a2 2 0 0 1 2-2z" fill="#195c85"/><path d="m49 44 4-4v14h-4z" fill="#5a6470"/><circle cx="51" cy="57" fill="#143441" r="4"/><path d="m37 44h12v4h-12z" fill="#394d5c"/><path d="m37 48-5 6h-3v-4l6-6h2z" fill="#5a6470"/><circle cx="30" cy="57" fill="#143441" r="4"/><path d="m21 48h-4v-4h6z" fill="#394d5c"/><path d="m17 48h4v6h-4z" fill="#5a6470"/><circle cx="18" cy="57" fill="#143441" r="4"/><path d="m32 35v-4h-6v4l-9 9h6l6-6 6 6h6z" fill="#cfdfe8"/><path d="m7 40h10v4h-10z" fill="#394d5c"/><path d="m3 31h4v9h-4z" fill="#394d5c"/><circle cx="5" cy="29" fill="#aabece" r="2"/><path d="m11 27h-8v-4h10z" fill="#195c85"/><path d="m17 27h4a2 2 0 0 1 2 2v2a0 0 0 0 1 0 0h-6a0 0 0 0 1 0 0v-4a0 0 0 0 1 0 0z" fill="#be2821"/><path d="m17 17h4v10h-4z" fill="#394d5c"/><path d="m17 13h6v4h-6z" fill="#be2821"/><path d="m23 13h-4l-2-4h4z" fill="#aabece"/><path d="m25 9h-8v-5h6z" fill="#195c85"/><g fill="#394d5c"><path d="m32 25h8v6h-8z"/><path d="m49 44 12-12-6-6-6 5z"/><circle cx="29" cy="36" r="2"/></g><circle cx="43" cy="37" fill="#f4f4e6" r="2"/><circle cx="5" cy="42" fill="#aabece" r="2"/><path d="m17 56h2v2h-2z"/><path d="m29 56h2v2h-2z"/><path d="m50 56h2v2h-2z"/><path d="m55.707 25.293a1 1 0 0 0 -1.348-.061l-5.721 4.768h-2.638v-6h1a1 1 0 0 0 1-1v-4a3 3 0 0 0 -6 0v4a1 1 0 0 0 1 1h1v6h-3v-5a1 1 0 0 0 -1-1h-8a1 1 0 0 0 -1 1v5h-7v-1a2.7 2.7 0 0 0 -2-2.863v-8.137h1a1 1 0 0 0 1-1v-4a.978.978 0 0 0 -.115-.443l-1.267-2.557h2.382a1 1 0 0 0 .929-1.372l-2-5a1 1 0 0 0 -.929-.628h-6a1 1 0 0 0 -1 1v5a.978.978 0 0 0 .115.443l1.267 2.557h-.382a1 1 0 0 0 -1 1v26h-8v-8a.993.993 0 0 0 -.3-.713 2.856 2.856 0 0 0 .116-2.287h3.184a1 1 0 0 0 .895-.553l2-4a1 1 0 0 0 -.895-1.447h-10a1 1 0 0 0 -1 1v4a.993.993 0 0 0 .3.713 2.893 2.893 0 0 0 0 2.574.993.993 0 0 0 -.3.713v9a.993.993 0 0 0 .3.713 2.964 2.964 0 0 0 -.3 1.287 3 3 0 0 0 3 3 2.964 2.964 0 0 0 1.287-.3.991.991 0 0 0 .713.3h9v7.424a5 5 0 1 0 7 4.576 4.952 4.952 0 0 0 -1-2.975c0-.009 0-.016 0-.025v-5.764l1.618-3.236h8.968l-4.293 4.293a1 1 0 0 0 -.293.707v2.424a5.015 5.015 0 1 0 5.64 1.176l3.829-4.6h10.531v4.026a5 5 0 1 0 6 0v-12.612l7.707-7.707a1 1 0 0 0 0-1.414zm-50.707 17.707a1 1 0 1 1 1-1 1 1 0 0 1 -1 1zm1-4h-2v-7h2zm-1-9a1 1 0 1 1 1-1 1 1 0 0 1 -1 1zm-1-4v-2h7.382l-1 2zm46 5.468 4.938-4.115 1.648 1.647-6.586 6.586zm0 12.946 2-2v9.686a5 5 0 0 0 -2 0zm-6-25.414a1 1 0 0 1 2 0v3h-2zm-11 7h6v4h-6zm0 6h15v11h-6.586l-8.414-8.414zm-6 0h4v1.78a2.954 2.954 0 0 0 -4 0zm3 4a1 1 0 1 1 -1-1 1 1 0 0 1 1 1zm-12-31h4.323l1.2 3h-5.523zm3.382 7h-1.764l-1-2h1.764zm-3.382 2h4v2h-4zm0 4h2v8h-2zm0 10h3c.785 0 1 .215 1 1v1h-4zm0 4h7v2.586l-7 7zm0 17h2v3.424a4.95 4.95 0 0 0 -2-.424zm-10-6v-2h8v2zm10 17a3 3 0 1 1 3-3 3 3 0 0 1 -3 3zm2.382-13h-2.382v-2h3.382zm2.2-4h-3.168l6.624-6.624a2.983 2.983 0 0 0 1.162 2.009zm2.828 0 3.59-3.586 3.586 3.586zm4.59 17a3 3 0 1 1 3-3 3 3 0 0 1 -3 3zm6-12.362-3.992 4.79a4.971 4.971 0 0 0 -2.008-.428v-1.586l5.414-5.414h.586zm-.586-4.638-4.614-4.615a2.983 2.983 0 0 0 1.163-2.009l6.623 6.624zm2.586 4v-2h10v2zm13 13a3 3 0 1 1 3-3 3 3 0 0 1 -3 3zm-1-18.414v-3.172l8-8 1.586 1.586z"/><path d="m46 37a3 3 0 1 0 -3 3 3 3 0 0 0 3-3zm-4 0a1 1 0 1 1 1 1 1 1 0 0 1 -1-1z"/></g></svg>