<svg height="512" viewBox="0 0 64 64" width="512" xmlns="http://www.w3.org/2000/svg"><g id="Filled_outline" data-name="Filled outline"><g fill="#394d5c"><path d="m24 29-21 21h58l-21-21z"/><path d="m26 3h12v10h-12z"/><path d="m26 13h12a2 2 0 0 1 2 2v14a0 0 0 0 1 0 0h-16a0 0 0 0 1 0 0v-14a2 2 0 0 1 2-2z"/></g><path d="m59 54h-54l-2-4h58z" fill="#c75048"/><path d="m37 61h-10l-2-2v-5h14v5z" fill="#143441"/><path d="m26 9h12v4h-12z" fill="#cfdfe8"/><path d="m24 25h16v4h-16z" fill="#143441"/><path d="m29 34a3.009 3.009 0 0 1 3 3v6a3.009 3.009 0 0 1 -3 3h-11c-1.845 0-2.3-2.695-1-4l6-6c1.811-1.811 3.439-2 6-2z" fill="#cfdfe8"/><path d="m45 34h-9v4h13z" fill="#cfdfe8"/><path d="m16.293 41.293a3.748 3.748 0 0 0 -.769 3.995 2.637 2.637 0 0 0 2.476 1.712h11a4 4 0 0 0 4-4v-6a4 4 0 0 0 -4-4c-2.585 0-4.579.164-6.707 2.293zm12.707-6.293a2 2 0 0 1 2 2v6a2 2 0 0 1 -2 2h-11c-.117 0-.43 0-.628-.478a1.776 1.776 0 0 1 .335-1.815l6-6c1.539-1.539 2.855-1.707 5.293-1.707z"/><path d="m39 3a1 1 0 0 0 -1-1h-12a1 1 0 0 0 -1 1v9.178a2.953 2.953 0 0 0 -2 2.822v13.586l-20.707 20.707a1 1 0 0 0 -.217 1.09c.009.022 2.029 4.064 2.029 4.064a1 1 0 0 0 .895.553h19v4a1 1 0 0 0 .293.707l2 2a1 1 0 0 0 .707.293h10a1 1 0 0 0 .707-.293l2-2a1 1 0 0 0 .293-.707v-4h19a1 1 0 0 0 .9-.553s2.02-4.042 2.029-4.064a1 1 0 0 0 -.217-1.09l-20.712-20.707v-13.586a2.953 2.953 0 0 0 -2-2.822zm0 12v9h-2v-10h1a.957.957 0 0 1 1 1zm-12-11h10v4h-10zm0 6h10v2h-10zm8 4v10h-2v-10zm-4 0v10h-2v-10zm-6 1a.957.957 0 0 1 1-1h1v10h-2zm0 11h14v2h-14zm4 34h-1.586l-1.414-1.414v-3.586h3zm4 0h-2v-5h2zm5-1.414-1.414 1.414h-1.586v-5h3zm20.382-5.586h-52.764l-1-2h54.764zm-11.8-16h-9.582v-2h7.586zm-7-7 3 3h-6.582a1 1 0 0 0 -1 1v4a1 1 0 0 0 1 1h12.586l10 10h-53.172l19-19z"/><path d="m35 41h10v2h-10z"/><path d="m35 45h5v2h-5z"/><path d="m50 45h2v2h-2z"/><path d="m27 41h2v2h-2z"/><path d="m27 37h2v2h-2z"/></g></svg>