<svg height="512" viewBox="0 0 64 64" width="512" xmlns="http://www.w3.org/2000/svg"><g id="Filled_outline" data-name="Filled outline"><path d="m33 56c-1.2 0-2.369-.972-3.542-1.6-.984-.532-1.682-1.4-2.458-1.4a7.67 7.67 0 0 0 -3 1c-1.482.8-3.475 2.495-5 2-1.584-.515-2.291-2.517-3-4-.467-.976-.42-2.578-1-3s-1.917.146-3 0c-1.7-.228-4.032-.672-5-2s-.3-3.325 0-5a7.031 7.031 0 0 0 0-3c-.214-.661-1.228-1.268-2-2a5 5 0 0 1 0-8c.772-.732 1.786-1.34 2-2a7.031 7.031 0 0 0 0-3c-.3-1.675-.957-3.685 0-5s3.3-1.772 5-2a7.845 7.845 0 0 0 3-1c.58-.422.534-1.024 1-2 .709-1.483 1.415-3.486 3-4 1.524-.493 3.517 1.2 5 2a7.67 7.67 0 0 0 3 1c.776 0 2.016-1.471 3-2 1.482-.8 2.475-1.493 4-1 1.584.515 2.292 2.517 3 4a10.8 10.8 0 0 0 2 3c.593.432 1.917-.146 3 0a5.333 5.333 0 0 1 4 2c.957 1.316.3 3.325 0 5a7.031 7.031 0 0 0 0 3c.214.661 1.228 1.268 2 2a5 5 0 0 1 0 8c-.772.732-1.786 1.34-2 2a7.031 7.031 0 0 0 0 3c.3 1.675.957 3.685 0 5-.967 1.33-2.3.772-4 1a7.845 7.845 0 0 0 -3 1 10.778 10.778 0 0 0 -2 3c-.709 1.483-1.415 3.486-3 4a3.225 3.225 0 0 1 -1 0z" fill="#ad6327"/><g fill="#f9bb4b"><circle cx="25" cy="32" r="5"/><circle cx="13" cy="35" r="2"/><circle cx="35" cy="38" r="3"/><circle cx="33" cy="18" r="2"/></g><circle cx="55" cy="55" fill="#ad6327" r="6"/><path d="m4.312 37.726a21.937 21.937 0 0 1 1.737 1.584 6.246 6.246 0 0 1 -.033 2.511c-.047.261-.1.53-.16.8-.341 1.641-.729 3.5.335 4.965 1.175 1.612 3.651 2.131 5.676 2.4a6.356 6.356 0 0 0 1.732-.077 7.288 7.288 0 0 1 .793-.078 6.669 6.669 0 0 1 .222.914 7.3 7.3 0 0 0 .484 1.682c.091.191.183.392.277.6.68 1.488 1.524 3.339 3.316 3.921a2.89 2.89 0 0 0 .9.141 7.847 7.847 0 0 0 3.831-1.58c.368-.232.721-.455 1.048-.631a6.908 6.908 0 0 1 2.53-.878 2.95 2.95 0 0 1 .856.525c.326.245 1.7 1.082 1.985 1.258a6.258 6.258 0 0 0 3.159 1.217 4.525 4.525 0 0 0 1.309-.049c1.792-.581 2.636-2.431 3.315-3.919.094-.206.187-.408.278-.6a10.482 10.482 0 0 1 1.687-2.622 6.982 6.982 0 0 1 2.544-.818 9.278 9.278 0 0 1 1.267-.056 3.556 3.556 0 0 0 3.409-1.347c1.063-1.461.676-3.319.336-4.96-.057-.274-.114-.544-.161-.807a6.246 6.246 0 0 1 -.033-2.511 22.129 22.129 0 0 1 1.737-1.585 5.985 5.985 0 0 0 0-9.451 21.937 21.937 0 0 1 -1.737-1.584 6.246 6.246 0 0 1 .033-2.511c.047-.261.1-.53.16-.8.341-1.641.729-3.5-.335-4.965a6.872 6.872 0 0 0 -6.409-2.329c-.3.042-.747.1-.813.105a10.583 10.583 0 0 1 -1.687-2.623c-.091-.191-.183-.391-.276-.6-.68-1.489-1.526-3.341-3.319-3.923s-3.031.11-4.352.837l-.429.233a9.265 9.265 0 0 0 -1.424 1.055 7.708 7.708 0 0 1 -1.1.83 6.908 6.908 0 0 1 -2.526-.881c-.328-.177-.683-.4-1.052-.633-1.462-.919-3.113-1.959-4.731-1.437-1.792.581-2.636 2.431-3.315 3.919-.094.206-.589 1.355-.682 1.634-.144.431-.187.52-.283.589a6.982 6.982 0 0 1 -2.544.818c-2.027.272-4.5.791-5.676 2.4-1.063 1.461-.676 3.319-.336 4.96.057.274.114.544.161.807a6.246 6.246 0 0 1 .033 2.511 22.129 22.129 0 0 1 -1.737 1.585 5.985 5.985 0 0 0 0 9.451zm1.376-8c.224-.213.471-.414.709-.609a4.286 4.286 0 0 0 1.554-1.807 8.307 8.307 0 0 0 .033-3.488c-.05-.278-.11-.565-.171-.857-.268-1.294-.546-2.631 0-3.377.819-1.127 3.457-1.481 4.324-1.6a8.809 8.809 0 0 0 3.455-1.182 2.835 2.835 0 0 0 1-1.573c.077-.231.506-1.22.6-1.438.543-1.19 1.159-2.537 2.113-2.847.718-.235 2.011.576 3.049 1.229.411.258.8.505 1.169.7a8.863 8.863 0 0 0 3.477 1.123 4.163 4.163 0 0 0 2.377-1.295 7.927 7.927 0 0 1 1.1-.824l.444-.242c1.258-.693 1.852-.986 2.772-.688.956.311 1.573 1.66 2.117 2.852.1.216.194.426.291.629a11.547 11.547 0 0 0 2.313 3.377 2.988 2.988 0 0 0 2.269.257 4.8 4.8 0 0 1 1.187-.075c1.745.235 2.647.667 3.324 1.6.543.747.264 2.086-.005 3.381-.06.29-.12.576-.17.852a8.3 8.3 0 0 0 .033 3.487 4.273 4.273 0 0 0 1.548 1.806c.238.2.485.4.709.608a4.02 4.02 0 0 1 0 6.549c-.224.213-.471.414-.709.609a4.286 4.286 0 0 0 -1.554 1.807 8.307 8.307 0 0 0 -.033 3.488c.05.278.11.565.171.857.268 1.294.546 2.631 0 3.377-.364.5-.748.526-1.786.523a11.127 11.127 0 0 0 -1.538.074 8.809 8.809 0 0 0 -3.455 1.182 11.494 11.494 0 0 0 -2.305 3.377c-.1.2-.2.416-.293.634-.543 1.19-1.159 2.537-2.1 2.842-.044.009-.569-.044-.707-.044a4.777 4.777 0 0 1 -2.112-.922c-.319-.2-1.551-.942-1.833-1.154a3.477 3.477 0 0 0 -2.055-.924 8.856 8.856 0 0 0 -3.475 1.12c-.363.2-.756.442-1.165.7-1.037.654-2.325 1.462-3.051 1.23-.955-.311-1.571-1.659-2.115-2.85-.1-.216-.2-.428-.292-.631a5.725 5.725 0 0 1 -.326-1.211 3.32 3.32 0 0 0 -.987-2.166 2.033 2.033 0 0 0 -1.238-.355 7.424 7.424 0 0 0 -1.031.1 4.847 4.847 0 0 1 -1.187.075c-.866-.116-3.5-.47-4.324-1.6-.543-.747-.264-2.086 0-3.381.06-.29.12-.576.17-.852a8.3 8.3 0 0 0 -.033-3.487 4.273 4.273 0 0 0 -1.546-1.809c-.238-.2-.485-.4-.709-.608a4.02 4.02 0 0 1 0-6.549z"/><path d="m25 38a6 6 0 1 0 -6-6 6.006 6.006 0 0 0 6 6zm0-10a4 4 0 1 1 -4 4 4 4 0 0 1 4-4z"/><path d="m13 38a3 3 0 1 0 -3-3 3 3 0 0 0 3 3zm0-4a1 1 0 1 1 -1 1 1 1 0 0 1 1-1z"/><path d="m31 38a4 4 0 1 0 4-4 4 4 0 0 0 -4 4zm6 0a2 2 0 1 1 -2-2 2 2 0 0 1 2 2z"/><path d="m33 21a3 3 0 1 0 -3-3 3 3 0 0 0 3 3zm0-4a1 1 0 1 1 -1 1 1 1 0 0 1 1-1z"/><path d="m20 41h2v2h-2z"/><path d="m15 21h2v2h-2z"/><path d="m23 16h2v2h-2z"/><path d="m35 26h2v2h-2z"/><path d="m42 31h2v2h-2z"/><path d="m27 47h2v2h-2z"/><path d="m13 42h2v2h-2z"/><path d="m11 26h2v2h-2z"/><path d="m24 22h2v2h-2z"/><path d="m40 20h2v2h-2z"/><path d="m41 43h2v2h-2z"/><path d="m21 49h2v2h-2z"/><path d="m45.411 8.75h17.678v2h-17.678z" transform="matrix(.707 -.707 .707 .707 8.995 41.216)"/><path d="m47.929 14h14.142v2h-14.142z" transform="matrix(.707 -.707 .707 .707 5.503 43.284)"/><path d="m55 48a7 7 0 1 0 7 7 7.009 7.009 0 0 0 -7-7zm0 12a5 5 0 1 1 5-5 5.006 5.006 0 0 1 -5 5z"/><path d="m53 56h2v2h-2z"/><path d="m55 52h2v2h-2z"/><path d="m50.24 38.75h12.021v2h-12.021z" transform="matrix(.707 -.707 .707 .707 -11.632 51.417)"/><path d="m51.343 32h11.314v2h-11.314z" transform="matrix(.707 -.707 .707 .707 -6.64 49.971)"/><path d="m1.929 7h14.142v2h-14.142z" transform="matrix(.707 -.707 .707 .707 -3.021 8.707)"/><path d="m6.722 7.5h15.556v2h-15.556z" transform="matrix(.707 -.707 .707 .707 -1.763 12.743)"/></g></svg>