<svg height="512" viewBox="0 0 64 64" width="512" xmlns="http://www.w3.org/2000/svg"><g id="Filled_outline" data-name="Filled outline"><path d="m29 7h3a24 24 0 0 1 24 24v1a0 0 0 0 1 0 0h-48a0 0 0 0 1 0 0v-4a21 21 0 0 1 21-21z" fill="#cdeef6"/><path d="m8 28h48v4h-48z" fill="#72c9dd"/><path d="m8 32h48v25h-48z" fill="#cdeef6"/><path d="m3 57h58v4h-58z" fill="#92cdde"/><path d="m29 3h6a2 2 0 0 1 2 2v27a0 0 0 0 1 0 0h-10a0 0 0 0 1 0 0v-27a2 2 0 0 1 2-2z" fill="#2d75bb"/><path d="m26 44h12v13h-12z" fill="#195c85"/><g fill="#92cdde"><path d="m21 40h22v4h-22z"/><path d="m16 48h6v5h-6z"/><path d="m42 48h6v5h-6z"/></g><path d="m8 32h4v25h-4z" fill="#50b3c9"/><path d="m52 32h4v25h-4z" fill="#50b3c9"/><path d="m37 24h8v4h-8z" fill="#92cdde"/><path d="m19 24h8v4h-8z" fill="#92cdde"/><path d="m12 32h40v4h-40z" fill="#195c85"/><path d="m32 44h6v13h-6z" fill="#2d75bb"/><path d="m30 32h4v8h-4z" fill="#50b3c9"/><path d="m61 56h-4v-28a20.363 20.363 0 0 0 -7.394-16.241 25.5 25.5 0 0 0 -11.606-5.197v-1.562a2.812 2.812 0 0 0 -3-3h-6a2.812 2.812 0 0 0 -3 3v1.568c-11.567 2.157-19 10.478-19 21.432v28h-4a1 1 0 0 0 -1 1v4a1 1 0 0 0 1 1h58a1 1 0 0 0 1-1v-4a1 1 0 0 0 -1-1zm-9-25v-2h3v2zm3 2v23h-2v-23zm-17-24.4a23.376 23.376 0 0 1 10.332 4.7 18.265 18.265 0 0 1 6.619 13.7h-8.951v-3a1 1 0 0 0 -1-1h-7zm0 16.4h6v2h-6zm0 4h12v2h-12zm13 4v2h-16v-2zm-18 16v-4h4v11h-4v-5h2v-2zm-11-6v-2h20v2zm9 8v5h-4v-11h4v4h-2v2zm-10-6h4v11h-12v-19h16v2h-8a1 1 0 0 0 -1 1v4a1 1 0 0 0 1 1zm18 0h4a1 1 0 0 0 1-1v-4a1 1 0 0 0 -1-1h-8v-2h16v19h-12zm-6-41h2c.729 0 1 .271 1 1v26h-3zm0 35h-2v-6h2zm-5-34c0-.729.271-1 1-1h2v27h-3zm1 28v2h-16v-2zm-3-4v2h-12v-2zm-6-2v-2h6v2zm6-18.4v14.4h-7a1 1 0 0 0 -1 1v3h-8.958c.423-9.461 6.803-16.38 16.958-18.4zm-17 20.4h3v2h-3zm0 4h2v23h-2zm51 27h-56v-2h56z"/><path d="m15 48v5a1 1 0 0 0 1 1h6a1 1 0 0 0 1-1v-5a1 1 0 0 0 -1-1h-6a1 1 0 0 0 -1 1zm2 1h4v3h-4z"/><path d="m48 47h-6a1 1 0 0 0 -1 1v5a1 1 0 0 0 1 1h6a1 1 0 0 0 1-1v-5a1 1 0 0 0 -1-1zm-1 5h-4v-3h4z"/><path d="m15 39h2v4h-2z"/><path d="m47 39h2v4h-2z"/><path d="m48 17h2v2h-2z"/><path d="m44 14h2v2h-2z"/></g></svg>