<svg height="512" viewBox="0 0 64 64" width="512" xmlns="http://www.w3.org/2000/svg"><g id="Filled_outline" data-name="Filled outline"><path d="m3 35h19v8h-19z" fill="#394d5c"/><path d="m42 35h19v8h-19z" fill="#394d5c"/><path d="m26 32h12v18h-12z" fill="#aabece"/><path d="m22 37h4v4h-4z" fill="#7d8d9c"/><path d="m38 37h4v4h-4z" fill="#7d8d9c"/><path d="m3 35h10v8h-10z" fill="#143441"/><path d="m51 35h10v8h-10z" fill="#143441"/><path d="m29 50h6v4h-6z" fill="#7d8d9c"/><path d="m29 27h6v5h-6z" fill="#7d8d9c"/><path d="m26 22h12a0 0 0 0 1 0 0 6 6 0 0 1 -6 6 6 6 0 0 1 -6-6 0 0 0 0 1 0 0z" fill="#394d5c"/><path d="m61 34h-19a1 1 0 0 0 -1 1v1h-2v-4a1 1 0 0 0 -1-1h-2v-3.264a6.991 6.991 0 0 0 3-5.736 1 1 0 0 0 -1-1h-5v-4h-2v4h-5a1 1 0 0 0 -1 1 6.992 6.992 0 0 0 3 5.736v3.264h-2a1 1 0 0 0 -1 1v4h-2v-1a1 1 0 0 0 -1-1h-19a1 1 0 0 0 -1 1v8a1 1 0 0 0 1 1h19a1 1 0 0 0 1-1v-1h2v8a1 1 0 0 0 1 1h2v3a1 1 0 0 0 1 1h6a1 1 0 0 0 1-1v-3h2a1 1 0 0 0 1-1v-8h2v1a1 1 0 0 0 1 1h19a1 1 0 0 0 1-1v-8a1 1 0 0 0 -1-1zm-49 8h-8v-2h8zm0-4h-8v-2h8zm9 4h-7v-2h7zm0-4h-7v-2h7zm4 2h-2v-2h2zm2.1-17h9.8a5 5 0 0 1 -9.8 0zm6.9 5.7v2.3h-4v-2.3a6.927 6.927 0 0 0 4 0zm0 24.3h-4v-2h4zm3-4h-10v-16h10zm4-9h-2v-2h2zm9 2h-7v-2h7zm0-4h-7v-2h7zm10 4h-8v-2h8zm0-4h-8v-2h8z"/><path d="m29 35h6v2h-6z"/><path d="m29 39h6v2h-6z"/><path d="m33 45h2v2h-2z"/><path d="m20 20a5.006 5.006 0 0 1 5-5v-2a7.008 7.008 0 0 0 -7 7z"/><path d="m25 11v-2a11.013 11.013 0 0 0 -11 11h2a9.01 9.01 0 0 1 9-9z"/><path d="m43 20h2a7.008 7.008 0 0 0 -7-7v2a5.006 5.006 0 0 1 5 5z"/><path d="m47 20h2a11.013 11.013 0 0 0 -11-11v2a9.01 9.01 0 0 1 9 9z"/></g></svg>