<svg height="512" viewBox="0 0 64 64" width="512" xmlns="http://www.w3.org/2000/svg"><g id="Filled_outline" data-name="Filled outline"><path d="m38 29h7a4.021 4.021 0 0 0 4-3v-6a2.717 2.717 0 0 0 -3-3c-1.426 0-2.745 1.6-3 3v3h-5z" fill="#aabece"/><path d="m20 7a4 4 0 0 1 4 4v25a0 0 0 0 1 0 0h-8a0 0 0 0 1 0 0v-25a4 4 0 0 1 4-4z" fill="#5a6470"/><path d="m31 3h2a8 8 0 0 1 8 8 8 8 0 0 1 -8 8h-4a6 6 0 0 1 -6-6v-2a8 8 0 0 1 8-8z" fill="#cfdfe8"/><path d="m16 43h4a0 0 0 0 1 0 0v8a2 2 0 0 1 -2 2h-2a0 0 0 0 1 0 0v-10a0 0 0 0 1 0 0z" fill="#394d5c"/><path d="m35 57h10a2 2 0 0 1 2 2v2a0 0 0 0 1 0 0h-12a0 0 0 0 1 0 0v-4a0 0 0 0 1 0 0z" fill="#394d5c"/><path d="m38 40v-17h-14v12.757a10.242 10.242 0 0 0 3 7.243h-7v7h12.778l2.222 7h9z" fill="#cfdfe8"/><path d="m32 8c-2.269.567-3 1.661-3 4v2.994a4.025 4.025 0 0 0 3.694 4 7.991 7.991 0 0 0 6.8-12.659z" fill="#394d5c"/><path d="m24 19h14v4h-14z" fill="#7d8d9c"/><path d="m31 23h7v10h-7z" fill="#7d8d9c"/><path d="m31 23h7v5h-7z" fill="#f4f4e6"/><path d="m46 17c-1.426 0-2.745 1.6-3 3v3h6v-3a2.717 2.717 0 0 0 -3-3z" fill="#394d5c"/><path d="m31 26a3 3 0 0 0 -3-3h-11a4.021 4.021 0 0 0 -4 3v7a2.717 2.717 0 0 0 3 3c1.426 0 2.745-1.6 3-3v-4h9a3 3 0 0 0 3-3z" fill="#aabece"/><path d="m13 33a2.717 2.717 0 0 0 3 3c1.426 0 2.745-1.6 3-3v-4h-6z" fill="#394d5c"/><path d="m45 56h-.292l-5.708-16.171v-9.829h6a5.036 5.036 0 0 0 4.983-3.821.969.969 0 0 0 .017-.179v-6a3.711 3.711 0 0 0 -4-4c-1.968 0-3.648 1.976-3.984 3.821a1.073 1.073 0 0 0 -.016.179v2h-3v-3a.99.99 0 0 0 -.531-.868 8.989 8.989 0 0 0 -5.469-16.132h-2a9 9 0 0 0 -8.045 4.989 4.977 4.977 0 0 0 -7.955 4.011v11.411a4.763 4.763 0 0 0 -2.983 3.41.969.969 0 0 0 -.017.179v7a3.711 3.711 0 0 0 4 4h7.075a11.116 11.116 0 0 0 1.814 5h-8.889a1 1 0 0 0 -1 1v10a1 1 0 0 0 1 1h2a3 3 0 0 0 3-3h11.046l1.954 6.155v3.845a1 1 0 0 0 1 1h12a1 1 0 0 0 1-1v-2a3 3 0 0 0 -3-3zm-1-35.9c.214-.964 1.15-2.1 2-2.1a1.744 1.744 0 0 1 2 2v2h-4zm-5 3.9h3v2h2v-2h4v1.9a3.066 3.066 0 0 1 -3 2.1h-6zm-21 8.9c-.214.964-1.15 2.1-2 2.1a1.744 1.744 0 0 1 -2-2v-3h4zm5 2.1h-3.781a4.989 4.989 0 0 0 .765-1.821 1.073 1.073 0 0 0 .016-.179v-3h3zm0-7h-3v-2h-2v2h-4v-1.9a3.066 3.066 0 0 1 3-2.1h6zm0-6h-6v-11a3 3 0 0 1 5.123-2.123c.036.036.071.091.107.131a8.965 8.965 0 0 0 -.23 1.992v2a6.953 6.953 0 0 0 1 3.587zm-4 29a1 1 0 0 1 -1 1h-1v-8h2zm21-40a7.009 7.009 0 0 1 -7 7h-.269a3.029 3.029 0 0 1 -2.731-3v-3c0-1.938.482-2.59 2.217-3.023l6.813-1.514a6.947 6.947 0 0 1 .97 3.537zm-8 16v-3h5v3zm5 2v3h-5v-3zm-12-7v-2h12v2zm5 4a2 2 0 0 1 -2 2h-3v-4h3a2 2 0 0 1 2 2zm-6-13v-2a7.009 7.009 0 0 1 7-7h2a6.96 6.96 0 0 1 4.6 1.733l-5.837 1.3a4.362 4.362 0 0 0 -3.334 2.486l-2.029-1.351-1.107 1.664 2.725 1.817c0 .119-.018.226-.018.351v2.994a5.021 5.021 0 0 0 1.041 3.006h-.041a5.006 5.006 0 0 1 -5-5zm9.73 36.7a.98.98 0 0 0 -.265-.406 10.131 10.131 0 0 0 2.277-2.844l-1.789-.894c-.76 1.516-2.845 3.444-4.105 3.444h-8.848v-5h9v-2h-2.559a9.17 9.17 0 0 1 -2.441-6.242v-5.758h3a3.959 3.959 0 0 0 2-.556v3.556a1 1 0 0 0 1 1h6v6a1.022 1.022 0 0 0 .057.333l5.53 15.667h-6.856zm12.27 10.3h-10v-2h9a1 1 0 0 1 1 1z"/><path d="m36.555 14.707a4.65 4.65 0 0 0 1.282-3.851l-1.979.288a2.536 2.536 0 0 1 -2.867 2.867l-.291 1.978a4.006 4.006 0 0 0 .58.038 4.582 4.582 0 0 0 3.275-1.32z"/><path d="m27 37h2v2h-2z"/><path d="m33 36h2v2h-2z"/><path d="m51.848 27.979a4.144 4.144 0 0 1 -4.838 4.035l-.324 1.972a5.766 5.766 0 0 0 .96.075 6.2 6.2 0 0 0 3.813-1.27 6.39 6.39 0 0 0 2.389-4.77z"/><path d="m55.865 26.186a7.836 7.836 0 0 1 -.88 5.308 7.548 7.548 0 0 1 -2.648 2.647l1.021 1.718a9.527 9.527 0 0 0 3.352-3.353 9.717 9.717 0 0 0 1.12-6.692z"/><path d="m13.716 7.5a7.183 7.183 0 0 1 2.633-2.632l-1-1.73a9.061 9.061 0 0 0 -4.492 6.739l1.985.252a7.053 7.053 0 0 1 .874-2.629z"/><path d="m9.731 6.468a6.432 6.432 0 0 1 2.6-2.592l-.963-1.752a8.413 8.413 0 0 0 -3.4 3.408 9.148 9.148 0 0 0 -.019 7.9l1.8-.86a7.1 7.1 0 0 1 -.018-6.104z"/></g></svg>